<svg xmlns="http://www.w3.org/2000/svg" viewBox="59.502 -219 144.182 201.335">
  <defs>
    <style>
      .cls-1, .cls-5 {
        fill: none;
      }

      .cls-1 {
        stroke: #000;
        stroke-width: 8px;
      }

      .cls-2 {
        fill: #0576f8;
        stroke: #fff;
      }

      .cls-2, .cls-3 {
        stroke-width: 4px;
      }

      .cls-3 {
        fill: #fff;
        stroke: #0576f8;
      }

      .cls-4 {
        stroke: none;
      }
    </style>
  </defs>
  <g id="Group_1" data-name="Group 1" transform="translate(-14.498 -273)">
    <path id="Path_2" data-name="Path 2" class="cls-1" d="M89-47.172V-181.127H212.425v38.312H125.711v32.275h56.327v35.465H125.711V-.109" transform="translate(-4.609 245.354)"/>
    <g id="Ellipse_1" data-name="Ellipse 1" class="cls-2" transform="translate(74 54)">
      <circle class="cls-4" cx="10.391" cy="10.391" r="10.391"/>
      <circle class="cls-5" cx="10.391" cy="10.391" r="8.391"/>
    </g>
    <g id="Ellipse_5" data-name="Ellipse 5" class="cls-3" transform="translate(110.37 234.552)">
      <circle class="cls-4" cx="10.391" cy="10.391" r="10.391"/>
      <circle class="cls-5" cx="10.391" cy="10.391" r="8.391"/>
    </g>
    <g id="Ellipse_6" data-name="Ellipse 6" class="cls-3" transform="translate(74 187.79)">
      <circle class="cls-4" cx="10.391" cy="10.391" r="10.391"/>
      <circle class="cls-5" cx="10.391" cy="10.391" r="8.391"/>
    </g>
    <g id="Ellipse_11" data-name="Ellipse 11" class="cls-2" transform="translate(110.37 125.441)">
      <circle class="cls-4" cx="10.391" cy="10.391" r="10.391"/>
      <circle class="cls-5" cx="10.391" cy="10.391" r="8.391"/>
    </g>
    <g id="Ellipse_12" data-name="Ellipse 12" class="cls-2" transform="translate(197.399 92.968)">
      <circle class="cls-4" cx="10.391" cy="10.391" r="10.391"/>
      <circle class="cls-5" cx="10.391" cy="10.391" r="8.391"/>
    </g>
    <g id="Ellipse_13" data-name="Ellipse 13" class="cls-2" transform="translate(167.523 160.513)">
      <circle class="cls-4" cx="10.391" cy="10.391" r="10.391"/>
      <circle class="cls-5" cx="10.391" cy="10.391" r="8.391"/>
    </g>
  </g>
</svg>
